<?xml version="1.0" encoding="utf-8" standalone="no"?>
<!DOCTYPE svg PUBLIC "-//W3C//DTD SVG 1.1//EN"
  "http://www.w3.org/Graphics/SVG/1.1/DTD/svg11.dtd">
<!-- Created with matplotlib (https://matplotlib.org/) -->
<svg height="720pt" version="1.1" viewBox="0 0 1440 720" width="1440pt" xmlns="http://www.w3.org/2000/svg" xmlns:xlink="http://www.w3.org/1999/xlink">
 <metadata>
  <rdf:RDF xmlns:cc="http://creativecommons.org/ns#" xmlns:dc="http://purl.org/dc/elements/1.1/" xmlns:rdf="http://www.w3.org/1999/02/22-rdf-syntax-ns#">
   <cc:Work>
    <dc:type rdf:resource="http://purl.org/dc/dcmitype/StillImage"/>
    <dc:date>2021-05-01T00:34:21.016740</dc:date>
    <dc:format>image/svg+xml</dc:format>
    <dc:creator>
     <cc:Agent>
      <dc:title>Matplotlib v3.3.2, https://matplotlib.org/</dc:title>
     </cc:Agent>
    </dc:creator>
   </cc:Work>
  </rdf:RDF>
 </metadata>
 <defs>
  <style type="text/css">*{stroke-linecap:butt;stroke-linejoin:round;}</style>
 </defs>
 <g id="figure_1">
  <g id="patch_1">
   <path d="M 0 720 
L 1440 720 
L 1440 0 
L 0 0 
z
" style="fill:#ffffff;"/>
  </g>
  <g id="axes_1">
   <g id="patch_2">
    <path d="M 180 630 
L 1296 630 
L 1296 86.4 
L 180 86.4 
z
" style="fill:#ffffff;"/>
   </g>
   <g id="matplotlib.axis_1">
    <g id="xtick_1">
     <g id="text_1">
      <!-- 2020-03 -->
      <g style="fill:#262626;" transform="translate(213.189702 661.247187)scale(0.22 -0.22)">
       <defs>
        <path d="M 50.34375 8.453125 
L 50.34375 0 
L 3.03125 0 
Q 2.9375 3.171875 4.046875 6.109375 
Q 5.859375 10.9375 9.828125 15.625 
Q 13.8125 20.3125 21.34375 26.46875 
Q 33.015625 36.03125 37.109375 41.625 
Q 41.21875 47.21875 41.21875 52.203125 
Q 41.21875 57.421875 37.46875 61 
Q 33.734375 64.59375 27.734375 64.59375 
Q 21.390625 64.59375 17.578125 60.78125 
Q 13.765625 56.984375 13.71875 50.25 
L 4.6875 51.171875 
Q 5.609375 61.28125 11.65625 66.578125 
Q 17.71875 71.875 27.9375 71.875 
Q 38.234375 71.875 44.234375 66.15625 
Q 50.25 60.453125 50.25 52 
Q 50.25 47.703125 48.484375 43.546875 
Q 46.734375 39.40625 42.65625 34.8125 
Q 38.578125 30.21875 29.109375 22.21875 
Q 21.1875 15.578125 18.9375 13.203125 
Q 16.703125 10.84375 15.234375 8.453125 
z
" id="ArialMT-50"/>
        <path d="M 4.15625 35.296875 
Q 4.15625 48 6.765625 55.734375 
Q 9.375 63.484375 14.515625 67.671875 
Q 19.671875 71.875 27.484375 71.875 
Q 33.25 71.875 37.59375 69.546875 
Q 41.9375 67.234375 44.765625 62.859375 
Q 47.609375 58.5 49.21875 52.21875 
Q 50.828125 45.953125 50.828125 35.296875 
Q 50.828125 22.703125 48.234375 14.96875 
Q 45.65625 7.234375 40.5 3 
Q 35.359375 -1.21875 27.484375 -1.21875 
Q 17.140625 -1.21875 11.234375 6.203125 
Q 4.15625 15.140625 4.15625 35.296875 
z
M 13.1875 35.296875 
Q 13.1875 17.671875 17.3125 11.828125 
Q 21.4375 6 27.484375 6 
Q 33.546875 6 37.671875 11.859375 
Q 41.796875 17.71875 41.796875 35.296875 
Q 41.796875 52.984375 37.671875 58.78125 
Q 33.546875 64.59375 27.390625 64.59375 
Q 21.34375 64.59375 17.71875 59.46875 
Q 13.1875 52.9375 13.1875 35.296875 
z
" id="ArialMT-48"/>
        <path d="M 3.171875 21.484375 
L 3.171875 30.328125 
L 30.171875 30.328125 
L 30.171875 21.484375 
z
" id="ArialMT-45"/>
        <path d="M 4.203125 18.890625 
L 12.984375 20.0625 
Q 14.5 12.59375 18.140625 9.296875 
Q 21.78125 6 27 6 
Q 33.203125 6 37.46875 10.296875 
Q 41.75 14.59375 41.75 20.953125 
Q 41.75 27 37.796875 30.921875 
Q 33.84375 34.859375 27.734375 34.859375 
Q 25.25 34.859375 21.53125 33.890625 
L 22.515625 41.609375 
Q 23.390625 41.5 23.921875 41.5 
Q 29.546875 41.5 34.03125 44.421875 
Q 38.53125 47.359375 38.53125 53.46875 
Q 38.53125 58.296875 35.25 61.46875 
Q 31.984375 64.65625 26.8125 64.65625 
Q 21.6875 64.65625 18.265625 61.421875 
Q 14.84375 58.203125 13.875 51.765625 
L 5.078125 53.328125 
Q 6.6875 62.15625 12.390625 67.015625 
Q 18.109375 71.875 26.609375 71.875 
Q 32.46875 71.875 37.390625 69.359375 
Q 42.328125 66.84375 44.9375 62.5 
Q 47.5625 58.15625 47.5625 53.265625 
Q 47.5625 48.640625 45.0625 44.828125 
Q 42.578125 41.015625 37.703125 38.765625 
Q 44.046875 37.3125 47.5625 32.6875 
Q 51.078125 28.078125 51.078125 21.140625 
Q 51.078125 11.765625 44.234375 5.25 
Q 37.40625 -1.265625 26.953125 -1.265625 
Q 17.53125 -1.265625 11.296875 4.34375 
Q 5.078125 9.96875 4.203125 18.890625 
z
" id="ArialMT-51"/>
       </defs>
       <use xlink:href="#ArialMT-50"/>
       <use x="55.615234" xlink:href="#ArialMT-48"/>
       <use x="111.230469" xlink:href="#ArialMT-50"/>
       <use x="166.845703" xlink:href="#ArialMT-48"/>
       <use x="222.460938" xlink:href="#ArialMT-45"/>
       <use x="255.761719" xlink:href="#ArialMT-48"/>
       <use x="311.376953" xlink:href="#ArialMT-51"/>
      </g>
     </g>
    </g>
    <g id="xtick_2">
     <g id="text_2">
      <!-- 2020-05 -->
      <g style="fill:#262626;" transform="translate(367.907884 661.247187)scale(0.22 -0.22)">
       <defs>
        <path d="M 4.15625 18.75 
L 13.375 19.53125 
Q 14.40625 12.796875 18.140625 9.390625 
Q 21.875 6 27.15625 6 
Q 33.5 6 37.890625 10.78125 
Q 42.28125 15.578125 42.28125 23.484375 
Q 42.28125 31 38.0625 35.34375 
Q 33.84375 39.703125 27 39.703125 
Q 22.75 39.703125 19.328125 37.765625 
Q 15.921875 35.84375 13.96875 32.765625 
L 5.71875 33.84375 
L 12.640625 70.609375 
L 48.25 70.609375 
L 48.25 62.203125 
L 19.671875 62.203125 
L 15.828125 42.96875 
Q 22.265625 47.46875 29.34375 47.46875 
Q 38.71875 47.46875 45.15625 40.96875 
Q 51.609375 34.46875 51.609375 24.265625 
Q 51.609375 14.546875 45.953125 7.46875 
Q 39.0625 -1.21875 27.15625 -1.21875 
Q 17.390625 -1.21875 11.203125 4.25 
Q 5.03125 9.71875 4.15625 18.75 
z
" id="ArialMT-53"/>
       </defs>
       <use xlink:href="#ArialMT-50"/>
       <use x="55.615234" xlink:href="#ArialMT-48"/>
       <use x="111.230469" xlink:href="#ArialMT-50"/>
       <use x="166.845703" xlink:href="#ArialMT-48"/>
       <use x="222.460938" xlink:href="#ArialMT-45"/>
       <use x="255.761719" xlink:href="#ArialMT-48"/>
       <use x="311.376953" xlink:href="#ArialMT-53"/>
      </g>
     </g>
    </g>
    <g id="xtick_3">
     <g id="text_3">
      <!-- 2020-07 -->
      <g style="fill:#262626;" transform="translate(522.626065 661.247187)scale(0.22 -0.22)">
       <defs>
        <path d="M 4.734375 62.203125 
L 4.734375 70.65625 
L 51.078125 70.65625 
L 51.078125 63.8125 
Q 44.234375 56.546875 37.515625 44.484375 
Q 30.8125 32.421875 27.15625 19.671875 
Q 24.515625 10.6875 23.78125 0 
L 14.75 0 
Q 14.890625 8.453125 18.0625 20.40625 
Q 21.234375 32.375 27.171875 43.484375 
Q 33.109375 54.59375 39.796875 62.203125 
z
" id="ArialMT-55"/>
       </defs>
       <use xlink:href="#ArialMT-50"/>
       <use x="55.615234" xlink:href="#ArialMT-48"/>
       <use x="111.230469" xlink:href="#ArialMT-50"/>
       <use x="166.845703" xlink:href="#ArialMT-48"/>
       <use x="222.460938" xlink:href="#ArialMT-45"/>
       <use x="255.761719" xlink:href="#ArialMT-48"/>
       <use x="311.376953" xlink:href="#ArialMT-55"/>
      </g>
     </g>
    </g>
    <g id="xtick_4">
     <g id="text_4">
      <!-- 2020-09 -->
      <g style="fill:#262626;" transform="translate(679.880611 661.247187)scale(0.22 -0.22)">
       <defs>
        <path d="M 5.46875 16.546875 
L 13.921875 17.328125 
Q 14.984375 11.375 18.015625 8.6875 
Q 21.046875 6 25.78125 6 
Q 29.828125 6 32.875 7.859375 
Q 35.9375 9.71875 37.890625 12.8125 
Q 39.84375 15.921875 41.15625 21.1875 
Q 42.484375 26.46875 42.484375 31.9375 
Q 42.484375 32.515625 42.4375 33.6875 
Q 39.796875 29.5 35.234375 26.875 
Q 30.671875 24.265625 25.34375 24.265625 
Q 16.453125 24.265625 10.296875 30.703125 
Q 4.15625 37.15625 4.15625 47.703125 
Q 4.15625 58.59375 10.578125 65.234375 
Q 17 71.875 26.65625 71.875 
Q 33.640625 71.875 39.421875 68.109375 
Q 45.21875 64.359375 48.21875 57.390625 
Q 51.21875 50.4375 51.21875 37.25 
Q 51.21875 23.53125 48.234375 15.40625 
Q 45.265625 7.28125 39.375 3.03125 
Q 33.5 -1.21875 25.59375 -1.21875 
Q 17.1875 -1.21875 11.859375 3.4375 
Q 6.546875 8.109375 5.46875 16.546875 
z
M 41.453125 48.140625 
Q 41.453125 55.71875 37.421875 60.15625 
Q 33.40625 64.59375 27.734375 64.59375 
Q 21.875 64.59375 17.53125 59.8125 
Q 13.1875 55.03125 13.1875 47.40625 
Q 13.1875 40.578125 17.3125 36.296875 
Q 21.4375 32.03125 27.484375 32.03125 
Q 33.59375 32.03125 37.515625 36.296875 
Q 41.453125 40.578125 41.453125 48.140625 
z
" id="ArialMT-57"/>
       </defs>
       <use xlink:href="#ArialMT-50"/>
       <use x="55.615234" xlink:href="#ArialMT-48"/>
       <use x="111.230469" xlink:href="#ArialMT-50"/>
       <use x="166.845703" xlink:href="#ArialMT-48"/>
       <use x="222.460938" xlink:href="#ArialMT-45"/>
       <use x="255.761719" xlink:href="#ArialMT-48"/>
       <use x="311.376953" xlink:href="#ArialMT-57"/>
      </g>
     </g>
    </g>
    <g id="xtick_5">
     <g id="text_5">
      <!-- 2020-11 -->
      <g style="fill:#262626;" transform="translate(835.410043 661.247187)scale(0.22 -0.22)">
       <defs>
        <path d="M 37.25 0 
L 28.46875 0 
L 28.46875 56 
Q 25.296875 52.984375 20.140625 49.953125 
Q 14.984375 46.921875 10.890625 45.40625 
L 10.890625 53.90625 
Q 18.265625 57.375 23.78125 62.296875 
Q 29.296875 67.234375 31.59375 71.875 
L 37.25 71.875 
z
" id="ArialMT-49"/>
       </defs>
       <use xlink:href="#ArialMT-50"/>
       <use x="55.615234" xlink:href="#ArialMT-48"/>
       <use x="111.230469" xlink:href="#ArialMT-50"/>
       <use x="166.845703" xlink:href="#ArialMT-48"/>
       <use x="222.460938" xlink:href="#ArialMT-45"/>
       <use x="255.761719" xlink:href="#ArialMT-49"/>
       <use x="304.001953" xlink:href="#ArialMT-49"/>
      </g>
     </g>
    </g>
    <g id="xtick_6">
     <g id="text_6">
      <!-- 2021-01 -->
      <g style="fill:#262626;" transform="translate(989.316974 661.247187)scale(0.22 -0.22)">
       <use xlink:href="#ArialMT-50"/>
       <use x="55.615234" xlink:href="#ArialMT-48"/>
       <use x="111.230469" xlink:href="#ArialMT-50"/>
       <use x="166.845703" xlink:href="#ArialMT-49"/>
       <use x="222.460938" xlink:href="#ArialMT-45"/>
       <use x="255.761719" xlink:href="#ArialMT-48"/>
       <use x="311.376953" xlink:href="#ArialMT-49"/>
      </g>
     </g>
    </g>
    <g id="xtick_7">
     <g id="text_7">
      <!-- 2021-03 -->
      <g style="fill:#262626;" transform="translate(1138.962429 661.247187)scale(0.22 -0.22)">
       <use xlink:href="#ArialMT-50"/>
       <use x="55.615234" xlink:href="#ArialMT-48"/>
       <use x="111.230469" xlink:href="#ArialMT-50"/>
       <use x="166.845703" xlink:href="#ArialMT-49"/>
       <use x="222.460938" xlink:href="#ArialMT-45"/>
       <use x="255.761719" xlink:href="#ArialMT-48"/>
       <use x="311.376953" xlink:href="#ArialMT-51"/>
      </g>
     </g>
    </g>
    <g id="text_8">
     <!-- date -->
     <g style="fill:#262626;" transform="translate(714.646875 686.798437)scale(0.24 -0.24)">
      <defs>
       <path d="M 40.234375 0 
L 40.234375 6.546875 
Q 35.296875 -1.171875 25.734375 -1.171875 
Q 19.53125 -1.171875 14.328125 2.25 
Q 9.125 5.671875 6.265625 11.796875 
Q 3.421875 17.921875 3.421875 25.875 
Q 3.421875 33.640625 6 39.96875 
Q 8.59375 46.296875 13.765625 49.65625 
Q 18.953125 53.03125 25.34375 53.03125 
Q 30.03125 53.03125 33.6875 51.046875 
Q 37.359375 49.078125 39.65625 45.90625 
L 39.65625 71.578125 
L 48.390625 71.578125 
L 48.390625 0 
z
M 12.453125 25.875 
Q 12.453125 15.921875 16.640625 10.984375 
Q 20.84375 6.0625 26.5625 6.0625 
Q 32.328125 6.0625 36.34375 10.765625 
Q 40.375 15.484375 40.375 25.140625 
Q 40.375 35.796875 36.265625 40.765625 
Q 32.171875 45.75 26.171875 45.75 
Q 20.3125 45.75 16.375 40.96875 
Q 12.453125 36.1875 12.453125 25.875 
z
" id="ArialMT-100"/>
       <path d="M 40.4375 6.390625 
Q 35.546875 2.25 31.03125 0.53125 
Q 26.515625 -1.171875 21.34375 -1.171875 
Q 12.796875 -1.171875 8.203125 3 
Q 3.609375 7.171875 3.609375 13.671875 
Q 3.609375 17.484375 5.34375 20.625 
Q 7.078125 23.78125 9.890625 25.6875 
Q 12.703125 27.59375 16.21875 28.5625 
Q 18.796875 29.25 24.03125 29.890625 
Q 34.671875 31.15625 39.703125 32.90625 
Q 39.75 34.71875 39.75 35.203125 
Q 39.75 40.578125 37.25 42.78125 
Q 33.890625 45.75 27.25 45.75 
Q 21.046875 45.75 18.09375 43.578125 
Q 15.140625 41.40625 13.71875 35.890625 
L 5.125 37.0625 
Q 6.296875 42.578125 8.984375 45.96875 
Q 11.671875 49.359375 16.75 51.1875 
Q 21.828125 53.03125 28.515625 53.03125 
Q 35.15625 53.03125 39.296875 51.46875 
Q 43.453125 49.90625 45.40625 47.53125 
Q 47.359375 45.171875 48.140625 41.546875 
Q 48.578125 39.3125 48.578125 33.453125 
L 48.578125 21.734375 
Q 48.578125 9.46875 49.140625 6.21875 
Q 49.703125 2.984375 51.375 0 
L 42.1875 0 
Q 40.828125 2.734375 40.4375 6.390625 
z
M 39.703125 26.03125 
Q 34.90625 24.078125 25.34375 22.703125 
Q 19.921875 21.921875 17.671875 20.9375 
Q 15.4375 19.96875 14.203125 18.09375 
Q 12.984375 16.21875 12.984375 13.921875 
Q 12.984375 10.40625 15.640625 8.0625 
Q 18.3125 5.71875 23.4375 5.71875 
Q 28.515625 5.71875 32.46875 7.9375 
Q 36.421875 10.15625 38.28125 14.015625 
Q 39.703125 17 39.703125 22.796875 
z
" id="ArialMT-97"/>
       <path d="M 25.78125 7.859375 
L 27.046875 0.09375 
Q 23.34375 -0.6875 20.40625 -0.6875 
Q 15.625 -0.6875 12.984375 0.828125 
Q 10.359375 2.34375 9.28125 4.8125 
Q 8.203125 7.28125 8.203125 15.1875 
L 8.203125 45.015625 
L 1.765625 45.015625 
L 1.765625 51.859375 
L 8.203125 51.859375 
L 8.203125 64.703125 
L 16.9375 69.96875 
L 16.9375 51.859375 
L 25.78125 51.859375 
L 25.78125 45.015625 
L 16.9375 45.015625 
L 16.9375 14.703125 
Q 16.9375 10.9375 17.40625 9.859375 
Q 17.875 8.796875 18.921875 8.15625 
Q 19.96875 7.515625 21.921875 7.515625 
Q 23.390625 7.515625 25.78125 7.859375 
z
" id="ArialMT-116"/>
       <path d="M 42.09375 16.703125 
L 51.171875 15.578125 
Q 49.03125 7.625 43.21875 3.21875 
Q 37.40625 -1.171875 28.375 -1.171875 
Q 17 -1.171875 10.328125 5.828125 
Q 3.65625 12.84375 3.65625 25.484375 
Q 3.65625 38.578125 10.390625 45.796875 
Q 17.140625 53.03125 27.875 53.03125 
Q 38.28125 53.03125 44.875 45.953125 
Q 51.46875 38.875 51.46875 26.03125 
Q 51.46875 25.25 51.421875 23.6875 
L 12.75 23.6875 
Q 13.234375 15.140625 17.578125 10.59375 
Q 21.921875 6.0625 28.421875 6.0625 
Q 33.25 6.0625 36.671875 8.59375 
Q 40.09375 11.140625 42.09375 16.703125 
z
M 13.234375 30.90625 
L 42.1875 30.90625 
Q 41.609375 37.453125 38.875 40.71875 
Q 34.671875 45.796875 27.984375 45.796875 
Q 21.921875 45.796875 17.796875 41.75 
Q 13.671875 37.703125 13.234375 30.90625 
z
" id="ArialMT-101"/>
      </defs>
      <use xlink:href="#ArialMT-100"/>
      <use x="55.615234" xlink:href="#ArialMT-97"/>
      <use x="111.230469" xlink:href="#ArialMT-116"/>
      <use x="139.013672" xlink:href="#ArialMT-101"/>
     </g>
    </g>
   </g>
   <g id="matplotlib.axis_2">
    <g id="ytick_1">
     <g id="text_9">
      <!-- −40 -->
      <g style="fill:#262626;" transform="translate(127.1825 637.873594)scale(0.22 -0.22)">
       <defs>
        <path d="M 52.828125 31.203125 
L 5.5625 31.203125 
L 5.5625 39.40625 
L 52.828125 39.40625 
z
" id="ArialMT-8722"/>
        <path d="M 32.328125 0 
L 32.328125 17.140625 
L 1.265625 17.140625 
L 1.265625 25.203125 
L 33.9375 71.578125 
L 41.109375 71.578125 
L 41.109375 25.203125 
L 50.78125 25.203125 
L 50.78125 17.140625 
L 41.109375 17.140625 
L 41.109375 0 
z
M 32.328125 25.203125 
L 32.328125 57.46875 
L 9.90625 25.203125 
z
" id="ArialMT-52"/>
       </defs>
       <use xlink:href="#ArialMT-8722"/>
       <use x="58.398438" xlink:href="#ArialMT-52"/>
       <use x="114.013672" xlink:href="#ArialMT-48"/>
      </g>
     </g>
    </g>
    <g id="ytick_2">
     <g id="text_10">
      <!-- −30 -->
      <g style="fill:#262626;" transform="translate(127.1825 547.273594)scale(0.22 -0.22)">
       <use xlink:href="#ArialMT-8722"/>
       <use x="58.398438" xlink:href="#ArialMT-51"/>
       <use x="114.013672" xlink:href="#ArialMT-48"/>
      </g>
     </g>
    </g>
    <g id="ytick_3">
     <g id="text_11">
      <!-- −20 -->
      <g style="fill:#262626;" transform="translate(127.1825 456.673594)scale(0.22 -0.22)">
       <use xlink:href="#ArialMT-8722"/>
       <use x="58.398438" xlink:href="#ArialMT-50"/>
       <use x="114.013672" xlink:href="#ArialMT-48"/>
      </g>
     </g>
    </g>
    <g id="ytick_4">
     <g id="text_12">
      <!-- −10 -->
      <g style="fill:#262626;" transform="translate(127.1825 366.073594)scale(0.22 -0.22)">
       <use xlink:href="#ArialMT-8722"/>
       <use x="58.398438" xlink:href="#ArialMT-49"/>
       <use x="114.013672" xlink:href="#ArialMT-48"/>
      </g>
     </g>
    </g>
    <g id="ytick_5">
     <g id="text_13">
      <!-- 0 -->
      <g style="fill:#262626;" transform="translate(152.265938 275.473594)scale(0.22 -0.22)">
       <use xlink:href="#ArialMT-48"/>
      </g>
     </g>
    </g>
    <g id="ytick_6">
     <g id="text_14">
      <!-- 10 -->
      <g style="fill:#262626;" transform="translate(140.031875 184.873594)scale(0.22 -0.22)">
       <use xlink:href="#ArialMT-49"/>
       <use x="55.615234" xlink:href="#ArialMT-48"/>
      </g>
     </g>
    </g>
    <g id="ytick_7">
     <g id="text_15">
      <!-- 20 -->
      <g style="fill:#262626;" transform="translate(140.031875 94.273594)scale(0.22 -0.22)">
       <use xlink:href="#ArialMT-50"/>
       <use x="55.615234" xlink:href="#ArialMT-48"/>
      </g>
     </g>
    </g>
    <g id="text_16">
     <!-- pct_chng_feb_1 -->
     <g style="fill:#262626;" transform="translate(118.13125 443.59875)rotate(-90)scale(0.24 -0.24)">
      <defs>
       <path d="M 6.59375 -19.875 
L 6.59375 51.859375 
L 14.59375 51.859375 
L 14.59375 45.125 
Q 17.4375 49.078125 21 51.046875 
Q 24.5625 53.03125 29.640625 53.03125 
Q 36.28125 53.03125 41.359375 49.609375 
Q 46.4375 46.1875 49.015625 39.953125 
Q 51.609375 33.734375 51.609375 26.3125 
Q 51.609375 18.359375 48.75 11.984375 
Q 45.90625 5.609375 40.453125 2.21875 
Q 35.015625 -1.171875 29 -1.171875 
Q 24.609375 -1.171875 21.109375 0.6875 
Q 17.625 2.546875 15.375 5.375 
L 15.375 -19.875 
z
M 14.546875 25.640625 
Q 14.546875 15.625 18.59375 10.84375 
Q 22.65625 6.0625 28.421875 6.0625 
Q 34.28125 6.0625 38.453125 11.015625 
Q 42.625 15.96875 42.625 26.375 
Q 42.625 36.28125 38.546875 41.203125 
Q 34.46875 46.140625 28.8125 46.140625 
Q 23.1875 46.140625 18.859375 40.890625 
Q 14.546875 35.640625 14.546875 25.640625 
z
" id="ArialMT-112"/>
       <path d="M 40.4375 19 
L 49.078125 17.875 
Q 47.65625 8.9375 41.8125 3.875 
Q 35.984375 -1.171875 27.484375 -1.171875 
Q 16.84375 -1.171875 10.375 5.78125 
Q 3.90625 12.75 3.90625 25.734375 
Q 3.90625 34.125 6.6875 40.421875 
Q 9.46875 46.734375 15.15625 49.875 
Q 20.84375 53.03125 27.546875 53.03125 
Q 35.984375 53.03125 41.359375 48.75 
Q 46.734375 44.484375 48.25 36.625 
L 39.703125 35.296875 
Q 38.484375 40.53125 35.375 43.15625 
Q 32.28125 45.796875 27.875 45.796875 
Q 21.234375 45.796875 17.078125 41.03125 
Q 12.9375 36.28125 12.9375 25.984375 
Q 12.9375 15.53125 16.9375 10.796875 
Q 20.953125 6.0625 27.390625 6.0625 
Q 32.5625 6.0625 36.03125 9.234375 
Q 39.5 12.40625 40.4375 19 
z
" id="ArialMT-99"/>
       <path d="M -1.515625 -19.875 
L -1.515625 -13.53125 
L 56.734375 -13.53125 
L 56.734375 -19.875 
z
" id="ArialMT-95"/>
       <path d="M 6.59375 0 
L 6.59375 71.578125 
L 15.375 71.578125 
L 15.375 45.90625 
Q 21.53125 53.03125 30.90625 53.03125 
Q 36.671875 53.03125 40.921875 50.75 
Q 45.171875 48.484375 47 44.484375 
Q 48.828125 40.484375 48.828125 32.859375 
L 48.828125 0 
L 40.046875 0 
L 40.046875 32.859375 
Q 40.046875 39.453125 37.1875 42.453125 
Q 34.328125 45.453125 29.109375 45.453125 
Q 25.203125 45.453125 21.75 43.421875 
Q 18.3125 41.40625 16.84375 37.9375 
Q 15.375 34.46875 15.375 28.375 
L 15.375 0 
z
" id="ArialMT-104"/>
       <path d="M 6.59375 0 
L 6.59375 51.859375 
L 14.5 51.859375 
L 14.5 44.484375 
Q 20.21875 53.03125 31 53.03125 
Q 35.6875 53.03125 39.625 51.34375 
Q 43.5625 49.65625 45.515625 46.921875 
Q 47.46875 44.1875 48.25 40.4375 
Q 48.734375 37.984375 48.734375 31.890625 
L 48.734375 0 
L 39.9375 0 
L 39.9375 31.546875 
Q 39.9375 36.921875 38.90625 39.578125 
Q 37.890625 42.234375 35.28125 43.8125 
Q 32.671875 45.40625 29.15625 45.40625 
Q 23.53125 45.40625 19.453125 41.84375 
Q 15.375 38.28125 15.375 28.328125 
L 15.375 0 
z
" id="ArialMT-110"/>
       <path d="M 4.984375 -4.296875 
L 13.53125 -5.5625 
Q 14.0625 -9.515625 16.5 -11.328125 
Q 19.78125 -13.765625 25.4375 -13.765625 
Q 31.546875 -13.765625 34.859375 -11.328125 
Q 38.1875 -8.890625 39.359375 -4.5 
Q 40.046875 -1.8125 39.984375 6.78125 
Q 34.234375 0 25.640625 0 
Q 14.9375 0 9.078125 7.71875 
Q 3.21875 15.4375 3.21875 26.21875 
Q 3.21875 33.640625 5.90625 39.90625 
Q 8.59375 46.1875 13.6875 49.609375 
Q 18.796875 53.03125 25.6875 53.03125 
Q 34.859375 53.03125 40.828125 45.609375 
L 40.828125 51.859375 
L 48.921875 51.859375 
L 48.921875 7.03125 
Q 48.921875 -5.078125 46.453125 -10.125 
Q 44 -15.1875 38.640625 -18.109375 
Q 33.296875 -21.046875 25.484375 -21.046875 
Q 16.21875 -21.046875 10.5 -16.875 
Q 4.78125 -12.703125 4.984375 -4.296875 
z
M 12.25 26.859375 
Q 12.25 16.65625 16.296875 11.96875 
Q 20.359375 7.28125 26.46875 7.28125 
Q 32.515625 7.28125 36.609375 11.9375 
Q 40.71875 16.609375 40.71875 26.5625 
Q 40.71875 36.078125 36.5 40.90625 
Q 32.28125 45.75 26.3125 45.75 
Q 20.453125 45.75 16.34375 40.984375 
Q 12.25 36.234375 12.25 26.859375 
z
" id="ArialMT-103"/>
       <path d="M 8.6875 0 
L 8.6875 45.015625 
L 0.921875 45.015625 
L 0.921875 51.859375 
L 8.6875 51.859375 
L 8.6875 57.375 
Q 8.6875 62.59375 9.625 65.140625 
Q 10.890625 68.5625 14.078125 70.671875 
Q 17.28125 72.796875 23.046875 72.796875 
Q 26.765625 72.796875 31.25 71.921875 
L 29.9375 64.265625 
Q 27.203125 64.75 24.75 64.75 
Q 20.75 64.75 19.09375 63.03125 
Q 17.4375 61.328125 17.4375 56.640625 
L 17.4375 51.859375 
L 27.546875 51.859375 
L 27.546875 45.015625 
L 17.4375 45.015625 
L 17.4375 0 
z
" id="ArialMT-102"/>
       <path d="M 14.703125 0 
L 6.546875 0 
L 6.546875 71.578125 
L 15.328125 71.578125 
L 15.328125 46.046875 
Q 20.90625 53.03125 29.546875 53.03125 
Q 34.328125 53.03125 38.59375 51.09375 
Q 42.875 49.171875 45.625 45.671875 
Q 48.390625 42.1875 49.953125 37.25 
Q 51.515625 32.328125 51.515625 26.703125 
Q 51.515625 13.375 44.921875 6.09375 
Q 38.328125 -1.171875 29.109375 -1.171875 
Q 19.921875 -1.171875 14.703125 6.5 
z
M 14.59375 26.3125 
Q 14.59375 17 17.140625 12.84375 
Q 21.296875 6.0625 28.375 6.0625 
Q 34.125 6.0625 38.328125 11.0625 
Q 42.53125 16.0625 42.53125 25.984375 
Q 42.53125 36.140625 38.5 40.96875 
Q 34.46875 45.796875 28.765625 45.796875 
Q 23 45.796875 18.796875 40.796875 
Q 14.59375 35.796875 14.59375 26.3125 
z
" id="ArialMT-98"/>
      </defs>
      <use xlink:href="#ArialMT-112"/>
      <use x="55.615234" xlink:href="#ArialMT-99"/>
      <use x="105.615234" xlink:href="#ArialMT-116"/>
      <use x="133.398438" xlink:href="#ArialMT-95"/>
      <use x="189.013672" xlink:href="#ArialMT-99"/>
      <use x="239.013672" xlink:href="#ArialMT-104"/>
      <use x="294.628906" xlink:href="#ArialMT-110"/>
      <use x="350.244141" xlink:href="#ArialMT-103"/>
      <use x="405.859375" xlink:href="#ArialMT-95"/>
      <use x="461.474609" xlink:href="#ArialMT-102"/>
      <use x="489.257812" xlink:href="#ArialMT-101"/>
      <use x="544.873047" xlink:href="#ArialMT-98"/>
      <use x="600.488281" xlink:href="#ArialMT-95"/>
      <use x="656.103516" xlink:href="#ArialMT-49"/>
     </g>
    </g>
   </g>
   <g id="PolyCollection_1">
    <defs>
     <path d="M 210.436364 -452.4 
L 210.436364 -452.3094 
L 212.972727 -451.6752 
L 215.509091 -448.5948 
L 218.045455 -447.0546 
L 220.581818 -445.152 
L 223.118182 -443.793 
L 225.654545 -441.981 
L 228.190909 -440.3502 
L 230.727273 -439.263 
L 233.263636 -438.9006 
L 235.8 -438.4476 
L 238.336364 -437.9946 
L 240.872727 -437.5416 
L 243.409091 -437.3604 
L 245.945455 -437.5416 
L 248.481818 -437.3604 
L 251.018182 -438.7194 
L 253.554545 -438.9006 
L 256.090909 -438.9006 
L 258.627273 -438.357 
L 261.163636 -437.451 
L 263.7 -436.1826 
L 266.236364 -435.0048 
L 268.772727 -434.5518 
L 271.309091 -434.1894 
L 273.845455 -433.4646 
L 276.381818 -433.0116 
L 278.918182 -432.1962 
L 281.454545 -431.1996 
L 283.990909 -429.297 
L 286.527273 -426.2166 
L 289.063636 -422.8644 
L 291.6 -419.9652 
L 294.136364 -414.801 
L 296.672727 -408.6402 
L 299.209091 -401.8452 
L 301.745455 -393.2382 
L 304.281818 -380.7354 
L 306.818182 -369.3198 
L 309.354545 -357.0888 
L 311.890909 -345.5826 
L 314.427273 -333.5328 
L 316.963636 -320.4864 
L 319.5 -306.4434 
L 322.036364 -295.4808 
L 324.572727 -283.6122 
L 327.109091 -272.4684 
L 329.645455 -261.5964 
L 332.181818 -250.5432 
L 334.718182 -240.1242 
L 337.254545 -232.0608 
L 339.790909 -221.6418 
L 342.327273 -210.6792 
L 344.863636 -200.7132 
L 347.4 -190.8378 
L 349.936364 -183.0462 
L 352.472727 -175.3452 
L 355.009091 -167.3724 
L 357.545455 -162.027 
L 360.081818 -157.044 
L 362.618182 -151.5174 
L 365.154545 -146.7156 
L 367.690909 -141.5514 
L 370.227273 -137.2026 
L 372.763636 -133.1256 
L 375.3 -130.0452 
L 377.836364 -126.9648 
L 380.372727 -124.6092 
L 382.909091 -122.0724 
L 385.445455 -119.5356 
L 387.981818 -117.18 
L 390.518182 -115.2774 
L 393.054545 -113.6466 
L 395.590909 -112.1064 
L 398.127273 -109.7508 
L 400.663636 -107.4858 
L 403.2 -106.3986 
L 405.736364 -105.402 
L 408.272727 -104.8584 
L 410.809091 -103.7712 
L 413.345455 -102.684 
L 415.881818 -101.8686 
L 418.418182 -101.5062 
L 420.954545 -101.325 
L 423.490909 -101.2344 
L 426.027273 -101.778 
L 428.563636 -103.4088 
L 431.1 -105.402 
L 433.636364 -106.761 
L 436.172727 -107.8482 
L 438.709091 -105.855 
L 441.245455 -106.308 
L 443.781818 -108.6636 
L 446.318182 -109.5696 
L 448.854545 -110.6568 
L 451.390909 -112.0158 
L 453.927273 -113.4654 
L 456.463636 -117.9048 
L 459 -121.0758 
L 461.536364 -122.0724 
L 464.072727 -124.0656 
L 466.609091 -125.4246 
L 469.145455 -126.7836 
L 471.681818 -127.7802 
L 474.218182 -129.1392 
L 476.754545 -129.5922 
L 479.290909 -131.5854 
L 481.827273 -134.847 
L 484.363636 -137.6556 
L 486.9 -140.1924 
L 489.436364 -143.3634 
L 491.972727 -146.3532 
L 494.509091 -149.796 
L 497.045455 -152.1516 
L 499.581818 -153.873 
L 502.118182 -156.0474 
L 504.654545 -158.403 
L 507.190909 -160.9398 
L 509.727273 -163.0236 
L 512.263636 -165.2886 
L 514.8 -167.2818 
L 517.336364 -169.5468 
L 519.872727 -172.7178 
L 522.409091 -175.8888 
L 524.945455 -179.1504 
L 527.481818 -182.3214 
L 530.018182 -185.7642 
L 532.554545 -189.4788 
L 535.090909 -193.6464 
L 537.627273 -197.9046 
L 540.163636 -202.2534 
L 542.7 -204.156 
L 545.236364 -206.3304 
L 547.772727 -208.4142 
L 550.309091 -210.045 
L 552.845455 -210.5886 
L 555.381818 -210.6792 
L 557.918182 -211.1322 
L 560.454545 -213.9408 
L 562.990909 -216.5682 
L 565.527273 -218.652 
L 568.063636 -221.2794 
L 570.6 -223.8162 
L 573.136364 -226.2624 
L 575.672727 -228.3462 
L 578.209091 -230.2488 
L 580.745455 -233.0574 
L 583.281818 -236.5002 
L 585.818182 -239.6712 
L 588.354545 -243.3858 
L 590.890909 -247.0098 
L 593.427273 -250.2714 
L 595.963636 -254.1672 
L 598.5 -256.5228 
L 601.036364 -258.2442 
L 603.572727 -259.875 
L 606.109091 -260.0562 
L 608.645455 -261.5964 
L 611.181818 -263.1366 
L 613.718182 -264.405 
L 616.254545 -266.4888 
L 618.790909 -268.8444 
L 621.327273 -272.2872 
L 623.863636 -276.9078 
L 626.4 -280.26 
L 628.936364 -283.5216 
L 631.472727 -286.6926 
L 634.009091 -289.5012 
L 636.545455 -292.3098 
L 639.081818 -293.7594 
L 641.618182 -294.8466 
L 644.154545 -295.8432 
L 646.690909 -297.2022 
L 649.227273 -297.8364 
L 651.763636 -298.6518 
L 654.3 -298.6518 
L 656.836364 -298.7424 
L 659.372727 -298.5612 
L 661.909091 -298.2894 
L 664.445455 -297.8364 
L 666.981818 -298.1988 
L 669.518182 -297.2928 
L 672.054545 -295.209 
L 674.590909 -293.397 
L 677.127273 -290.8602 
L 679.663636 -289.6824 
L 682.2 -288.414 
L 684.736364 -286.602 
L 687.272727 -286.0584 
L 689.809091 -287.4174 
L 692.345455 -288.2328 
L 694.881818 -290.7696 
L 697.418182 -291.7662 
L 699.954545 -293.0346 
L 702.490909 -294.9372 
L 705.027273 -296.7492 
L 707.563636 -298.1082 
L 710.1 -299.6484 
L 712.636364 -301.3698 
L 715.172727 -303.4536 
L 717.709091 -305.0844 
L 720.245455 -305.8998 
L 722.781818 -306.3528 
L 725.318182 -307.44 
L 727.854545 -308.346 
L 730.390909 -308.7084 
L 732.927273 -309.3426 
L 735.463636 -309.9768 
L 738 -310.611 
L 740.536364 -311.8794 
L 743.072727 -313.6914 
L 745.609091 -315.9564 
L 748.145455 -317.6778 
L 750.681818 -318.765 
L 753.218182 -320.2146 
L 755.754545 -322.4796 
L 758.290909 -324.3822 
L 760.827273 -325.9224 
L 763.363636 -327.1002 
L 765.9 -328.278 
L 768.436364 -330.1806 
L 770.972727 -331.5396 
L 773.509091 -333.1704 
L 776.045455 -334.9824 
L 778.581818 -336.432 
L 781.118182 -337.9722 
L 783.654545 -339.6936 
L 786.190909 -341.3244 
L 788.727273 -343.68 
L 791.263636 -346.2168 
L 793.8 -348.7536 
L 796.336364 -350.2938 
L 798.872727 -351.9246 
L 801.409091 -353.9178 
L 803.945455 -355.5486 
L 806.481818 -356.7264 
L 809.018182 -356.9982 
L 811.554545 -357.6324 
L 814.090909 -359.6256 
L 816.627273 -361.6188 
L 819.163636 -363.5214 
L 821.7 -365.7864 
L 824.236364 -367.9608 
L 826.772727 -369.7728 
L 829.309091 -371.0412 
L 831.845455 -371.6754 
L 834.381818 -371.6754 
L 836.918182 -370.9506 
L 839.454545 -370.9506 
L 841.990909 -370.6788 
L 844.527273 -371.4942 
L 847.063636 -372.5814 
L 849.6 -373.8498 
L 852.136364 -375.1182 
L 854.672727 -377.3832 
L 857.209091 -378.6516 
L 859.745455 -380.1918 
L 862.281818 -381.3696 
L 864.818182 -382.4568 
L 867.354545 -383.8158 
L 869.890909 -384.9936 
L 872.427273 -385.809 
L 874.963636 -386.8962 
L 877.5 -387.8022 
L 880.036364 -388.4364 
L 882.572727 -389.2518 
L 885.109091 -389.5236 
L 887.645455 -390.339 
L 890.181818 -391.1544 
L 892.718182 -392.0604 
L 895.254545 -392.604 
L 897.790909 -393.057 
L 900.327273 -393.51 
L 902.863636 -393.963 
L 905.4 -394.2348 
L 907.936364 -392.3322 
L 910.472727 -391.8792 
L 913.009091 -391.5168 
L 915.545455 -391.698 
L 918.081818 -392.2416 
L 920.618182 -393.057 
L 923.154545 -393.8724 
L 925.690909 -396.8622 
L 928.227273 -399.0366 
L 930.763636 -401.5734 
L 933.3 -403.7478 
L 935.836364 -405.0162 
L 938.372727 -406.8282 
L 940.909091 -407.6436 
L 943.445455 -408.2778 
L 945.981818 -408.1872 
L 948.518182 -408.2778 
L 951.054545 -407.553 
L 953.590909 -407.4624 
L 956.127273 -407.1906 
L 958.663636 -407.3718 
L 961.2 -408.006 
L 963.736364 -408.3684 
L 966.272727 -408.5496 
L 968.809091 -409.0932 
L 971.345455 -409.4556 
L 973.881818 -409.2744 
L 976.418182 -410.0898 
L 978.954545 -409.6368 
L 981.490909 -410.9052 
L 984.027273 -412.3548 
L 986.563636 -413.5326 
L 989.1 -414.8916 
L 991.636364 -415.5258 
L 994.172727 -417.7002 
L 996.709091 -420.3276 
L 999.245455 -422.049 
L 1001.781818 -423.7704 
L 1004.318182 -425.8542 
L 1006.854545 -427.938 
L 1009.390909 -430.5654 
L 1011.927273 -431.2902 
L 1014.463636 -432.015 
L 1017 -432.6492 
L 1019.536364 -433.0116 
L 1022.072727 -433.374 
L 1024.609091 -434.1894 
L 1027.145455 -434.4612 
L 1029.681818 -433.1928 
L 1032.218182 -431.0184 
L 1034.754545 -428.7534 
L 1037.290909 -427.3038 
L 1039.827273 -425.8542 
L 1042.363636 -425.7636 
L 1044.9 -426.3072 
L 1047.436364 -429.8406 
L 1049.972727 -433.827 
L 1052.509091 -438.7194 
L 1055.045455 -442.6152 
L 1057.581818 -445.7862 
L 1060.118182 -446.964 
L 1062.654545 -448.6854 
L 1065.190909 -449.0478 
L 1067.727273 -450.4068 
L 1070.263636 -450.4974 
L 1072.8 -450.6786 
L 1075.336364 -451.6752 
L 1075.336364 -452.4 
L 1075.336364 -452.4 
L 1072.8 -452.4 
L 1070.263636 -452.4 
L 1067.727273 -452.4 
L 1065.190909 -452.4 
L 1062.654545 -452.4 
L 1060.118182 -452.4 
L 1057.581818 -452.4 
L 1055.045455 -452.4 
L 1052.509091 -452.4 
L 1049.972727 -452.4 
L 1047.436364 -452.4 
L 1044.9 -452.4 
L 1042.363636 -452.4 
L 1039.827273 -452.4 
L 1037.290909 -452.4 
L 1034.754545 -452.4 
L 1032.218182 -452.4 
L 1029.681818 -452.4 
L 1027.145455 -452.4 
L 1024.609091 -452.4 
L 1022.072727 -452.4 
L 1019.536364 -452.4 
L 1017 -452.4 
L 1014.463636 -452.4 
L 1011.927273 -452.4 
L 1009.390909 -452.4 
L 1006.854545 -452.4 
L 1004.318182 -452.4 
L 1001.781818 -452.4 
L 999.245455 -452.4 
L 996.709091 -452.4 
L 994.172727 -452.4 
L 991.636364 -452.4 
L 989.1 -452.4 
L 986.563636 -452.4 
L 984.027273 -452.4 
L 981.490909 -452.4 
L 978.954545 -452.4 
L 976.418182 -452.4 
L 973.881818 -452.4 
L 971.345455 -452.4 
L 968.809091 -452.4 
L 966.272727 -452.4 
L 963.736364 -452.4 
L 961.2 -452.4 
L 958.663636 -452.4 
L 956.127273 -452.4 
L 953.590909 -452.4 
L 951.054545 -452.4 
L 948.518182 -452.4 
L 945.981818 -452.4 
L 943.445455 -452.4 
L 940.909091 -452.4 
L 938.372727 -452.4 
L 935.836364 -452.4 
L 933.3 -452.4 
L 930.763636 -452.4 
L 928.227273 -452.4 
L 925.690909 -452.4 
L 923.154545 -452.4 
L 920.618182 -452.4 
L 918.081818 -452.4 
L 915.545455 -452.4 
L 913.009091 -452.4 
L 910.472727 -452.4 
L 907.936364 -452.4 
L 905.4 -452.4 
L 902.863636 -452.4 
L 900.327273 -452.4 
L 897.790909 -452.4 
L 895.254545 -452.4 
L 892.718182 -452.4 
L 890.181818 -452.4 
L 887.645455 -452.4 
L 885.109091 -452.4 
L 882.572727 -452.4 
L 880.036364 -452.4 
L 877.5 -452.4 
L 874.963636 -452.4 
L 872.427273 -452.4 
L 869.890909 -452.4 
L 867.354545 -452.4 
L 864.818182 -452.4 
L 862.281818 -452.4 
L 859.745455 -452.4 
L 857.209091 -452.4 
L 854.672727 -452.4 
L 852.136364 -452.4 
L 849.6 -452.4 
L 847.063636 -452.4 
L 844.527273 -452.4 
L 841.990909 -452.4 
L 839.454545 -452.4 
L 836.918182 -452.4 
L 834.381818 -452.4 
L 831.845455 -452.4 
L 829.309091 -452.4 
L 826.772727 -452.4 
L 824.236364 -452.4 
L 821.7 -452.4 
L 819.163636 -452.4 
L 816.627273 -452.4 
L 814.090909 -452.4 
L 811.554545 -452.4 
L 809.018182 -452.4 
L 806.481818 -452.4 
L 803.945455 -452.4 
L 801.409091 -452.4 
L 798.872727 -452.4 
L 796.336364 -452.4 
L 793.8 -452.4 
L 791.263636 -452.4 
L 788.727273 -452.4 
L 786.190909 -452.4 
L 783.654545 -452.4 
L 781.118182 -452.4 
L 778.581818 -452.4 
L 776.045455 -452.4 
L 773.509091 -452.4 
L 770.972727 -452.4 
L 768.436364 -452.4 
L 765.9 -452.4 
L 763.363636 -452.4 
L 760.827273 -452.4 
L 758.290909 -452.4 
L 755.754545 -452.4 
L 753.218182 -452.4 
L 750.681818 -452.4 
L 748.145455 -452.4 
L 745.609091 -452.4 
L 743.072727 -452.4 
L 740.536364 -452.4 
L 738 -452.4 
L 735.463636 -452.4 
L 732.927273 -452.4 
L 730.390909 -452.4 
L 727.854545 -452.4 
L 725.318182 -452.4 
L 722.781818 -452.4 
L 720.245455 -452.4 
L 717.709091 -452.4 
L 715.172727 -452.4 
L 712.636364 -452.4 
L 710.1 -452.4 
L 707.563636 -452.4 
L 705.027273 -452.4 
L 702.490909 -452.4 
L 699.954545 -452.4 
L 697.418182 -452.4 
L 694.881818 -452.4 
L 692.345455 -452.4 
L 689.809091 -452.4 
L 687.272727 -452.4 
L 684.736364 -452.4 
L 682.2 -452.4 
L 679.663636 -452.4 
L 677.127273 -452.4 
L 674.590909 -452.4 
L 672.054545 -452.4 
L 669.518182 -452.4 
L 666.981818 -452.4 
L 664.445455 -452.4 
L 661.909091 -452.4 
L 659.372727 -452.4 
L 656.836364 -452.4 
L 654.3 -452.4 
L 651.763636 -452.4 
L 649.227273 -452.4 
L 646.690909 -452.4 
L 644.154545 -452.4 
L 641.618182 -452.4 
L 639.081818 -452.4 
L 636.545455 -452.4 
L 634.009091 -452.4 
L 631.472727 -452.4 
L 628.936364 -452.4 
L 626.4 -452.4 
L 623.863636 -452.4 
L 621.327273 -452.4 
L 618.790909 -452.4 
L 616.254545 -452.4 
L 613.718182 -452.4 
L 611.181818 -452.4 
L 608.645455 -452.4 
L 606.109091 -452.4 
L 603.572727 -452.4 
L 601.036364 -452.4 
L 598.5 -452.4 
L 595.963636 -452.4 
L 593.427273 -452.4 
L 590.890909 -452.4 
L 588.354545 -452.4 
L 585.818182 -452.4 
L 583.281818 -452.4 
L 580.745455 -452.4 
L 578.209091 -452.4 
L 575.672727 -452.4 
L 573.136364 -452.4 
L 570.6 -452.4 
L 568.063636 -452.4 
L 565.527273 -452.4 
L 562.990909 -452.4 
L 560.454545 -452.4 
L 557.918182 -452.4 
L 555.381818 -452.4 
L 552.845455 -452.4 
L 550.309091 -452.4 
L 547.772727 -452.4 
L 545.236364 -452.4 
L 542.7 -452.4 
L 540.163636 -452.4 
L 537.627273 -452.4 
L 535.090909 -452.4 
L 532.554545 -452.4 
L 530.018182 -452.4 
L 527.481818 -452.4 
L 524.945455 -452.4 
L 522.409091 -452.4 
L 519.872727 -452.4 
L 517.336364 -452.4 
L 514.8 -452.4 
L 512.263636 -452.4 
L 509.727273 -452.4 
L 507.190909 -452.4 
L 504.654545 -452.4 
L 502.118182 -452.4 
L 499.581818 -452.4 
L 497.045455 -452.4 
L 494.509091 -452.4 
L 491.972727 -452.4 
L 489.436364 -452.4 
L 486.9 -452.4 
L 484.363636 -452.4 
L 481.827273 -452.4 
L 479.290909 -452.4 
L 476.754545 -452.4 
L 474.218182 -452.4 
L 471.681818 -452.4 
L 469.145455 -452.4 
L 466.609091 -452.4 
L 464.072727 -452.4 
L 461.536364 -452.4 
L 459 -452.4 
L 456.463636 -452.4 
L 453.927273 -452.4 
L 451.390909 -452.4 
L 448.854545 -452.4 
L 446.318182 -452.4 
L 443.781818 -452.4 
L 441.245455 -452.4 
L 438.709091 -452.4 
L 436.172727 -452.4 
L 433.636364 -452.4 
L 431.1 -452.4 
L 428.563636 -452.4 
L 426.027273 -452.4 
L 423.490909 -452.4 
L 420.954545 -452.4 
L 418.418182 -452.4 
L 415.881818 -452.4 
L 413.345455 -452.4 
L 410.809091 -452.4 
L 408.272727 -452.4 
L 405.736364 -452.4 
L 403.2 -452.4 
L 400.663636 -452.4 
L 398.127273 -452.4 
L 395.590909 -452.4 
L 393.054545 -452.4 
L 390.518182 -452.4 
L 387.981818 -452.4 
L 385.445455 -452.4 
L 382.909091 -452.4 
L 380.372727 -452.4 
L 377.836364 -452.4 
L 375.3 -452.4 
L 372.763636 -452.4 
L 370.227273 -452.4 
L 367.690909 -452.4 
L 365.154545 -452.4 
L 362.618182 -452.4 
L 360.081818 -452.4 
L 357.545455 -452.4 
L 355.009091 -452.4 
L 352.472727 -452.4 
L 349.936364 -452.4 
L 347.4 -452.4 
L 344.863636 -452.4 
L 342.327273 -452.4 
L 339.790909 -452.4 
L 337.254545 -452.4 
L 334.718182 -452.4 
L 332.181818 -452.4 
L 329.645455 -452.4 
L 327.109091 -452.4 
L 324.572727 -452.4 
L 322.036364 -452.4 
L 319.5 -452.4 
L 316.963636 -452.4 
L 314.427273 -452.4 
L 311.890909 -452.4 
L 309.354545 -452.4 
L 306.818182 -452.4 
L 304.281818 -452.4 
L 301.745455 -452.4 
L 299.209091 -452.4 
L 296.672727 -452.4 
L 294.136364 -452.4 
L 291.6 -452.4 
L 289.063636 -452.4 
L 286.527273 -452.4 
L 283.990909 -452.4 
L 281.454545 -452.4 
L 278.918182 -452.4 
L 276.381818 -452.4 
L 273.845455 -452.4 
L 271.309091 -452.4 
L 268.772727 -452.4 
L 266.236364 -452.4 
L 263.7 -452.4 
L 261.163636 -452.4 
L 258.627273 -452.4 
L 256.090909 -452.4 
L 253.554545 -452.4 
L 251.018182 -452.4 
L 248.481818 -452.4 
L 245.945455 -452.4 
L 243.409091 -452.4 
L 240.872727 -452.4 
L 238.336364 -452.4 
L 235.8 -452.4 
L 233.263636 -452.4 
L 230.727273 -452.4 
L 228.190909 -452.4 
L 225.654545 -452.4 
L 223.118182 -452.4 
L 220.581818 -452.4 
L 218.045455 -452.4 
L 215.509091 -452.4 
L 212.972727 -452.4 
L 210.436364 -452.4 
z
" id="ma1299d45a0" style="stroke:#ff7f0e;stroke-opacity:0.1;stroke-width:2;"/>
    </defs>
    <g clip-path="url(#p9cf8a06e83)">
     <use style="fill:#ff7f0e;fill-opacity:0.1;stroke:#ff7f0e;stroke-opacity:0.1;stroke-width:2;" x="0" xlink:href="#ma1299d45a0" y="720"/>
    </g>
   </g>
   <g id="PolyCollection_2">
    <path clip-path="url(#p9cf8a06e83)" d="M 182.536364 267.6 
L 182.536364 267.5094 
L 185.072727 265.788 
L 187.609091 265.6068 
L 190.145455 265.5162 
L 192.681818 264.7008 
L 195.218182 265.4256 
L 197.754545 265.0632 
L 200.290909 264.9726 
L 202.827273 266.694 
L 205.363636 266.7846 
L 207.9 266.7846 
L 207.9 267.6 
L 207.9 267.6 
L 205.363636 267.6 
L 202.827273 267.6 
L 200.290909 267.6 
L 197.754545 267.6 
L 195.218182 267.6 
L 192.681818 267.6 
L 190.145455 267.6 
L 187.609091 267.6 
L 185.072727 267.6 
L 182.536364 267.6 
z
" style="fill:#1f77b4;fill-opacity:0.1;stroke:#1f77b4;stroke-opacity:0.1;stroke-width:2;"/>
    <path clip-path="url(#p9cf8a06e83)" d="M 1077.872727 267.6 
L 1077.872727 266.7846 
L 1080.409091 266.0598 
L 1082.945455 265.2444 
L 1085.481818 266.6034 
L 1088.018182 266.0598 
L 1090.554545 265.1538 
L 1093.090909 264.5196 
L 1095.627273 264.2478 
L 1098.163636 262.5264 
L 1100.7 261.3486 
L 1103.236364 257.9058 
L 1105.772727 255.5502 
L 1108.309091 253.2852 
L 1110.845455 250.5672 
L 1113.381818 248.4834 
L 1115.918182 248.3928 
L 1118.454545 245.6748 
L 1120.990909 244.2252 
L 1123.527273 242.4132 
L 1126.063636 240.9636 
L 1128.6 239.6952 
L 1131.136364 237.249 
L 1133.672727 233.625 
L 1136.209091 231.9036 
L 1138.745455 229.6386 
L 1141.281818 227.9172 
L 1143.818182 225.8334 
L 1146.354545 224.2026 
L 1148.890909 223.4778 
L 1151.427273 222.5718 
L 1153.963636 222.0282 
L 1156.5 222.753 
L 1159.036364 222.2094 
L 1161.572727 221.7564 
L 1164.109091 220.7598 
L 1166.645455 219.2196 
L 1169.181818 217.8606 
L 1171.718182 216.3204 
L 1174.254545 213.4212 
L 1176.790909 211.9716 
L 1179.327273 211.5186 
L 1181.863636 211.3374 
L 1184.4 210.522 
L 1186.936364 209.0724 
L 1189.472727 207.1698 
L 1192.009091 205.992 
L 1194.545455 203.9988 
L 1197.081818 200.7372 
L 1199.618182 197.1132 
L 1202.154545 194.4858 
L 1204.690909 191.7678 
L 1207.227273 189.4122 
L 1209.763636 185.2446 
L 1212.3 182.7984 
L 1214.836364 180.4428 
L 1217.372727 178.5402 
L 1219.909091 176.2752 
L 1222.445455 173.4666 
L 1224.981818 170.4768 
L 1227.518182 168.2118 
L 1230.054545 164.6784 
L 1232.590909 161.6886 
L 1235.127273 156.8868 
L 1237.663636 152.6286 
L 1240.2 149.2764 
L 1242.736364 145.743 
L 1245.272727 141.3036 
L 1247.809091 137.7702 
L 1250.345455 133.3308 
L 1252.881818 129.7068 
L 1255.418182 125.1768 
L 1257.954545 121.8246 
L 1260.490909 118.9254 
L 1263.027273 116.5698 
L 1265.563636 113.7612 
L 1268.1 111.1338 
L 1270.636364 109.503 
L 1273.172727 109.1406 
L 1275.709091 107.7816 
L 1278.245455 105.426 
L 1280.781818 104.3388 
L 1283.318182 105.426 
L 1285.854545 104.4294 
L 1288.390909 103.161 
L 1290.927273 100.1712 
L 1293.463636 96.9096 
L 1296 94.2822 
L 1296 267.6 
L 1296 267.6 
L 1293.463636 267.6 
L 1290.927273 267.6 
L 1288.390909 267.6 
L 1285.854545 267.6 
L 1283.318182 267.6 
L 1280.781818 267.6 
L 1278.245455 267.6 
L 1275.709091 267.6 
L 1273.172727 267.6 
L 1270.636364 267.6 
L 1268.1 267.6 
L 1265.563636 267.6 
L 1263.027273 267.6 
L 1260.490909 267.6 
L 1257.954545 267.6 
L 1255.418182 267.6 
L 1252.881818 267.6 
L 1250.345455 267.6 
L 1247.809091 267.6 
L 1245.272727 267.6 
L 1242.736364 267.6 
L 1240.2 267.6 
L 1237.663636 267.6 
L 1235.127273 267.6 
L 1232.590909 267.6 
L 1230.054545 267.6 
L 1227.518182 267.6 
L 1224.981818 267.6 
L 1222.445455 267.6 
L 1219.909091 267.6 
L 1217.372727 267.6 
L 1214.836364 267.6 
L 1212.3 267.6 
L 1209.763636 267.6 
L 1207.227273 267.6 
L 1204.690909 267.6 
L 1202.154545 267.6 
L 1199.618182 267.6 
L 1197.081818 267.6 
L 1194.545455 267.6 
L 1192.009091 267.6 
L 1189.472727 267.6 
L 1186.936364 267.6 
L 1184.4 267.6 
L 1181.863636 267.6 
L 1179.327273 267.6 
L 1176.790909 267.6 
L 1174.254545 267.6 
L 1171.718182 267.6 
L 1169.181818 267.6 
L 1166.645455 267.6 
L 1164.109091 267.6 
L 1161.572727 267.6 
L 1159.036364 267.6 
L 1156.5 267.6 
L 1153.963636 267.6 
L 1151.427273 267.6 
L 1148.890909 267.6 
L 1146.354545 267.6 
L 1143.818182 267.6 
L 1141.281818 267.6 
L 1138.745455 267.6 
L 1136.209091 267.6 
L 1133.672727 267.6 
L 1131.136364 267.6 
L 1128.6 267.6 
L 1126.063636 267.6 
L 1123.527273 267.6 
L 1120.990909 267.6 
L 1118.454545 267.6 
L 1115.918182 267.6 
L 1113.381818 267.6 
L 1110.845455 267.6 
L 1108.309091 267.6 
L 1105.772727 267.6 
L 1103.236364 267.6 
L 1100.7 267.6 
L 1098.163636 267.6 
L 1095.627273 267.6 
L 1093.090909 267.6 
L 1090.554545 267.6 
L 1088.018182 267.6 
L 1085.481818 267.6 
L 1082.945455 267.6 
L 1080.409091 267.6 
L 1077.872727 267.6 
z
" style="fill:#1f77b4;fill-opacity:0.1;stroke:#1f77b4;stroke-opacity:0.1;stroke-width:2;"/>
   </g>
   <g id="line2d_1">
    <path clip-path="url(#p9cf8a06e83)" d="M 180 267.6 
L 182.536364 267.5094 
L 185.072727 265.788 
L 190.145455 265.5162 
L 192.681818 264.7008 
L 195.218182 265.4256 
L 197.754545 265.0632 
L 200.290909 264.9726 
L 202.827273 266.694 
L 207.9 266.7846 
L 210.436364 267.6906 
L 212.972727 268.3248 
L 215.509091 271.4052 
L 218.045455 272.9454 
L 220.581818 274.848 
L 223.118182 276.207 
L 225.654545 278.019 
L 228.190909 279.6498 
L 230.727273 280.737 
L 235.8 281.5524 
L 240.872727 282.4584 
L 243.409091 282.6396 
L 245.945455 282.4584 
L 248.481818 282.6396 
L 251.018182 281.2806 
L 253.554545 281.0994 
L 256.090909 281.0994 
L 258.627273 281.643 
L 261.163636 282.549 
L 266.236364 284.9952 
L 271.309091 285.8106 
L 273.845455 286.5354 
L 276.381818 286.9884 
L 278.918182 287.8038 
L 281.454545 288.8004 
L 283.990909 290.703 
L 286.527273 293.7834 
L 289.063636 297.1356 
L 291.6 300.0348 
L 294.136364 305.199 
L 296.672727 311.3598 
L 299.209091 318.1548 
L 301.745455 326.7618 
L 304.281818 339.2646 
L 306.818182 350.6802 
L 309.354545 362.9112 
L 311.890909 374.4174 
L 314.427273 386.4672 
L 316.963636 399.5136 
L 319.5 413.5566 
L 322.036364 424.5192 
L 324.572727 436.3878 
L 332.181818 469.4568 
L 334.718182 479.8758 
L 337.254545 487.9392 
L 339.790909 498.3582 
L 342.327273 509.3208 
L 347.4 529.1622 
L 355.009091 552.6276 
L 357.545455 557.973 
L 360.081818 562.956 
L 362.618182 568.4826 
L 365.154545 573.2844 
L 367.690909 578.4486 
L 370.227273 582.7974 
L 372.763636 586.8744 
L 377.836364 593.0352 
L 380.372727 595.3908 
L 385.445455 600.4644 
L 387.981818 602.82 
L 390.518182 604.7226 
L 395.590909 607.8936 
L 400.663636 612.5142 
L 405.736364 614.598 
L 408.272727 615.1416 
L 413.345455 617.316 
L 415.881818 618.1314 
L 418.418182 618.4938 
L 423.490909 618.7656 
L 426.027273 618.222 
L 428.563636 616.5912 
L 431.1 614.598 
L 433.636364 613.239 
L 436.172727 612.1518 
L 438.709091 614.145 
L 441.245455 613.692 
L 443.781818 611.3364 
L 446.318182 610.4304 
L 448.854545 609.3432 
L 453.927273 606.5346 
L 456.463636 602.0952 
L 459 598.9242 
L 461.536364 597.9276 
L 464.072727 595.9344 
L 469.145455 593.2164 
L 471.681818 592.2198 
L 474.218182 590.8608 
L 476.754545 590.4078 
L 479.290909 588.4146 
L 481.827273 585.153 
L 484.363636 582.3444 
L 486.9 579.8076 
L 489.436364 576.6366 
L 491.972727 573.6468 
L 494.509091 570.204 
L 497.045455 567.8484 
L 499.581818 566.127 
L 502.118182 563.9526 
L 504.654545 561.597 
L 507.190909 559.0602 
L 509.727273 556.9764 
L 512.263636 554.7114 
L 514.8 552.7182 
L 517.336364 550.4532 
L 527.481818 537.6786 
L 530.018182 534.2358 
L 532.554545 530.5212 
L 537.627273 522.0954 
L 540.163636 517.7466 
L 542.7 515.844 
L 547.772727 511.5858 
L 550.309091 509.955 
L 552.845455 509.4114 
L 555.381818 509.3208 
L 557.918182 508.8678 
L 560.454545 506.0592 
L 562.990909 503.4318 
L 565.527273 501.348 
L 570.6 496.1838 
L 573.136364 493.7376 
L 575.672727 491.6538 
L 578.209091 489.7512 
L 580.745455 486.9426 
L 583.281818 483.4998 
L 585.818182 480.3288 
L 590.890909 472.9902 
L 593.427273 469.7286 
L 595.963636 465.8328 
L 598.5 463.4772 
L 603.572727 460.125 
L 606.109091 459.9438 
L 611.181818 456.8634 
L 613.718182 455.595 
L 616.254545 453.5112 
L 618.790909 451.1556 
L 621.327273 447.7128 
L 623.863636 443.0922 
L 628.936364 436.4784 
L 631.472727 433.3074 
L 636.545455 427.6902 
L 639.081818 426.2406 
L 644.154545 424.1568 
L 646.690909 422.7978 
L 649.227273 422.1636 
L 651.763636 421.3482 
L 659.372727 421.4388 
L 661.909091 421.7106 
L 664.445455 422.1636 
L 666.981818 421.8012 
L 669.518182 422.7072 
L 672.054545 424.791 
L 674.590909 426.603 
L 677.127273 429.1398 
L 682.2 431.586 
L 684.736364 433.398 
L 687.272727 433.9416 
L 689.809091 432.5826 
L 692.345455 431.7672 
L 694.881818 429.2304 
L 697.418182 428.2338 
L 699.954545 426.9654 
L 705.027273 423.2508 
L 707.563636 421.8918 
L 710.1 420.3516 
L 712.636364 418.6302 
L 715.172727 416.5464 
L 717.709091 414.9156 
L 720.245455 414.1002 
L 722.781818 413.6472 
L 725.318182 412.56 
L 727.854545 411.654 
L 730.390909 411.2916 
L 738 409.389 
L 740.536364 408.1206 
L 743.072727 406.3086 
L 745.609091 404.0436 
L 748.145455 402.3222 
L 750.681818 401.235 
L 753.218182 399.7854 
L 755.754545 397.5204 
L 758.290909 395.6178 
L 760.827273 394.0776 
L 765.9 391.722 
L 768.436364 389.8194 
L 770.972727 388.4604 
L 773.509091 386.8296 
L 776.045455 385.0176 
L 781.118182 382.0278 
L 786.190909 378.6756 
L 788.727273 376.32 
L 793.8 371.2464 
L 798.872727 368.0754 
L 801.409091 366.0822 
L 803.945455 364.4514 
L 806.481818 363.2736 
L 809.018182 363.0018 
L 811.554545 362.3676 
L 819.163636 356.4786 
L 824.236364 352.0392 
L 826.772727 350.2272 
L 829.309091 348.9588 
L 831.845455 348.3246 
L 834.381818 348.3246 
L 836.918182 349.0494 
L 839.454545 349.0494 
L 841.990909 349.3212 
L 844.527273 348.5058 
L 847.063636 347.4186 
L 852.136364 344.8818 
L 854.672727 342.6168 
L 857.209091 341.3484 
L 859.745455 339.8082 
L 869.890909 335.0064 
L 872.427273 334.191 
L 874.963636 333.1038 
L 877.5 332.1978 
L 880.036364 331.5636 
L 882.572727 330.7482 
L 885.109091 330.4764 
L 892.718182 327.9396 
L 897.790909 326.943 
L 902.863636 326.037 
L 905.4 325.7652 
L 907.936364 327.6678 
L 913.009091 328.4832 
L 915.545455 328.302 
L 918.081818 327.7584 
L 923.154545 326.1276 
L 925.690909 323.1378 
L 928.227273 320.9634 
L 930.763636 318.4266 
L 933.3 316.2522 
L 935.836364 314.9838 
L 938.372727 313.1718 
L 940.909091 312.3564 
L 943.445455 311.7222 
L 945.981818 311.8128 
L 948.518182 311.7222 
L 951.054545 312.447 
L 953.590909 312.5376 
L 956.127273 312.8094 
L 958.663636 312.6282 
L 961.2 311.994 
L 963.736364 311.6316 
L 966.272727 311.4504 
L 968.809091 310.9068 
L 971.345455 310.5444 
L 973.881818 310.7256 
L 976.418182 309.9102 
L 978.954545 310.3632 
L 981.490909 309.0948 
L 984.027273 307.6452 
L 986.563636 306.4674 
L 989.1 305.1084 
L 991.636364 304.4742 
L 994.172727 302.2998 
L 996.709091 299.6724 
L 1001.781818 296.2296 
L 1006.854545 292.062 
L 1009.390909 289.4346 
L 1017 287.3508 
L 1022.072727 286.626 
L 1024.609091 285.8106 
L 1027.145455 285.5388 
L 1029.681818 286.8072 
L 1034.754545 291.2466 
L 1039.827273 294.1458 
L 1042.363636 294.2364 
L 1044.9 293.6928 
L 1047.436364 290.1594 
L 1049.972727 286.173 
L 1052.509091 281.2806 
L 1055.045455 277.3848 
L 1057.581818 274.2138 
L 1060.118182 273.036 
L 1062.654545 271.3146 
L 1065.190909 270.9522 
L 1067.727273 269.5932 
L 1072.8 269.3214 
L 1075.336364 268.3248 
L 1077.872727 266.7846 
L 1082.945455 265.2444 
L 1085.481818 266.6034 
L 1088.018182 266.0598 
L 1090.554545 265.1538 
L 1093.090909 264.5196 
L 1095.627273 264.2478 
L 1098.163636 262.5264 
L 1100.7 261.3486 
L 1103.236364 257.9058 
L 1108.309091 253.2852 
L 1110.845455 250.5672 
L 1113.381818 248.4834 
L 1115.918182 248.3928 
L 1118.454545 245.6748 
L 1120.990909 244.2252 
L 1123.527273 242.4132 
L 1126.063636 240.9636 
L 1128.6 239.6952 
L 1131.136364 237.249 
L 1133.672727 233.625 
L 1136.209091 231.9036 
L 1138.745455 229.6386 
L 1141.281818 227.9172 
L 1143.818182 225.8334 
L 1146.354545 224.2026 
L 1148.890909 223.4778 
L 1151.427273 222.5718 
L 1153.963636 222.0282 
L 1156.5 222.753 
L 1161.572727 221.7564 
L 1164.109091 220.7598 
L 1166.645455 219.2196 
L 1169.181818 217.8606 
L 1171.718182 216.3204 
L 1174.254545 213.4212 
L 1176.790909 211.9716 
L 1179.327273 211.5186 
L 1181.863636 211.3374 
L 1184.4 210.522 
L 1186.936364 209.0724 
L 1189.472727 207.1698 
L 1192.009091 205.992 
L 1194.545455 203.9988 
L 1197.081818 200.7372 
L 1199.618182 197.1132 
L 1204.690909 191.7678 
L 1207.227273 189.4122 
L 1209.763636 185.2446 
L 1214.836364 180.4428 
L 1217.372727 178.5402 
L 1219.909091 176.2752 
L 1222.445455 173.4666 
L 1224.981818 170.4768 
L 1227.518182 168.2118 
L 1230.054545 164.6784 
L 1232.590909 161.6886 
L 1235.127273 156.8868 
L 1237.663636 152.6286 
L 1242.736364 145.743 
L 1245.272727 141.3036 
L 1247.809091 137.7702 
L 1250.345455 133.3308 
L 1252.881818 129.7068 
L 1255.418182 125.1768 
L 1257.954545 121.8246 
L 1260.490909 118.9254 
L 1263.027273 116.5698 
L 1265.563636 113.7612 
L 1268.1 111.1338 
L 1270.636364 109.503 
L 1273.172727 109.1406 
L 1275.709091 107.7816 
L 1278.245455 105.426 
L 1280.781818 104.3388 
L 1283.318182 105.426 
L 1285.854545 104.4294 
L 1288.390909 103.161 
L 1290.927273 100.1712 
L 1293.463636 96.9096 
L 1296 94.2822 
L 1296 94.2822 
" style="fill:none;stroke:#30a2da;stroke-linecap:round;stroke-width:3;"/>
   </g>
   <g id="line2d_2">
    <path clip-path="url(#p9cf8a06e83)" d="M 180 267.6 
L 1296 267.6 
" style="fill:none;stroke:#808080;stroke-linecap:round;stroke-width:2;"/>
   </g>
   <g id="patch_3">
    <path d="M 1219.440971 111.79558 
Q 1249.5933 106.546369 1279.745629 101.297158 
L 1278.973834 96.863838 
Q 1285.398212 98.790541 1291.82259 100.717244 
Q 1286.427273 104.701635 1281.031955 108.686026 
L 1280.26016 104.252705 
Q 1250.10783 109.501916 1219.955501 114.751127 
L 1219.440971 111.79558 
z
" style="stroke:#ffffff;stroke-linecap:round;stroke-width:2;"/>
   </g>
   <g id="text_17">
    <!-- 19.13% -->
    <g style="fill:#262626;" transform="translate(1131.136364 131.7)scale(0.24 -0.24)">
     <defs>
      <path d="M 9.078125 0 
L 9.078125 10.015625 
L 19.09375 10.015625 
L 19.09375 0 
z
" id="ArialMT-46"/>
      <path d="M 5.8125 54.390625 
Q 5.8125 62.0625 9.671875 67.421875 
Q 13.53125 72.796875 20.84375 72.796875 
Q 27.59375 72.796875 32 67.984375 
Q 36.421875 63.1875 36.421875 53.859375 
Q 36.421875 44.78125 31.953125 39.875 
Q 27.484375 34.96875 20.953125 34.96875 
Q 14.453125 34.96875 10.125 39.796875 
Q 5.8125 44.625 5.8125 54.390625 
z
M 21.09375 66.75 
Q 17.828125 66.75 15.65625 63.90625 
Q 13.484375 61.078125 13.484375 53.515625 
Q 13.484375 46.625 15.671875 43.8125 
Q 17.875 41.015625 21.09375 41.015625 
Q 24.421875 41.015625 26.59375 43.84375 
Q 28.765625 46.6875 28.765625 54.203125 
Q 28.765625 61.140625 26.5625 63.9375 
Q 24.359375 66.75 21.09375 66.75 
z
M 21.140625 -2.640625 
L 60.296875 72.796875 
L 67.4375 72.796875 
L 28.421875 -2.640625 
z
M 52.09375 16.796875 
Q 52.09375 24.515625 55.953125 29.859375 
Q 59.8125 35.203125 67.1875 35.203125 
Q 73.921875 35.203125 78.34375 30.390625 
Q 82.765625 25.59375 82.765625 16.265625 
Q 82.765625 7.171875 78.296875 2.265625 
Q 73.828125 -2.640625 67.234375 -2.640625 
Q 60.75 -2.640625 56.421875 2.21875 
Q 52.09375 7.078125 52.09375 16.796875 
z
M 67.4375 29.15625 
Q 64.109375 29.15625 61.9375 26.3125 
Q 59.765625 23.484375 59.765625 15.921875 
Q 59.765625 9.078125 61.953125 6.25 
Q 64.15625 3.421875 67.390625 3.421875 
Q 70.75 3.421875 72.921875 6.25 
Q 75.09375 9.078125 75.09375 16.609375 
Q 75.09375 23.53125 72.890625 26.34375 
Q 70.703125 29.15625 67.4375 29.15625 
z
" id="ArialMT-37"/>
     </defs>
     <use xlink:href="#ArialMT-49"/>
     <use x="55.615234" xlink:href="#ArialMT-57"/>
     <use x="111.230469" xlink:href="#ArialMT-46"/>
     <use x="139.013672" xlink:href="#ArialMT-49"/>
     <use x="194.628906" xlink:href="#ArialMT-51"/>
     <use x="250.244141" xlink:href="#ArialMT-37"/>
    </g>
   </g>
   <g id="text_18">
    <!-- % change in job postings since Feb 2020, seasonally adjusted, to Apr 2021 -->
    <g style="fill:#262626;" transform="translate(339.09 80.4)scale(0.24 -0.24)">
     <defs>
      <path id="ArialMT-32"/>
      <path d="M 6.640625 61.46875 
L 6.640625 71.578125 
L 15.4375 71.578125 
L 15.4375 61.46875 
z
M 6.640625 0 
L 6.640625 51.859375 
L 15.4375 51.859375 
L 15.4375 0 
z
" id="ArialMT-105"/>
      <path d="M 6.546875 61.375 
L 6.546875 71.578125 
L 15.328125 71.578125 
L 15.328125 61.375 
z
M -4.59375 -20.125 
L -2.9375 -12.640625 
Q -0.296875 -13.328125 1.21875 -13.328125 
Q 3.90625 -13.328125 5.21875 -11.546875 
Q 6.546875 -9.765625 6.546875 -2.640625 
L 6.546875 51.859375 
L 15.328125 51.859375 
L 15.328125 -2.828125 
Q 15.328125 -12.40625 12.84375 -16.15625 
Q 9.671875 -21.046875 2.296875 -21.046875 
Q -1.265625 -21.046875 -4.59375 -20.125 
z
" id="ArialMT-106"/>
      <path d="M 3.328125 25.921875 
Q 3.328125 40.328125 11.328125 47.265625 
Q 18.015625 53.03125 27.640625 53.03125 
Q 38.328125 53.03125 45.109375 46.015625 
Q 51.90625 39.015625 51.90625 26.65625 
Q 51.90625 16.65625 48.90625 10.90625 
Q 45.90625 5.171875 40.15625 2 
Q 34.421875 -1.171875 27.640625 -1.171875 
Q 16.75 -1.171875 10.03125 5.8125 
Q 3.328125 12.796875 3.328125 25.921875 
z
M 12.359375 25.921875 
Q 12.359375 15.96875 16.703125 11.015625 
Q 21.046875 6.0625 27.640625 6.0625 
Q 34.1875 6.0625 38.53125 11.03125 
Q 42.875 16.015625 42.875 26.21875 
Q 42.875 35.84375 38.5 40.796875 
Q 34.125 45.75 27.640625 45.75 
Q 21.046875 45.75 16.703125 40.8125 
Q 12.359375 35.890625 12.359375 25.921875 
z
" id="ArialMT-111"/>
      <path d="M 3.078125 15.484375 
L 11.765625 16.84375 
Q 12.5 11.625 15.84375 8.84375 
Q 19.1875 6.0625 25.203125 6.0625 
Q 31.25 6.0625 34.171875 8.515625 
Q 37.109375 10.984375 37.109375 14.3125 
Q 37.109375 17.28125 34.515625 19 
Q 32.71875 20.171875 25.53125 21.96875 
Q 15.875 24.421875 12.140625 26.203125 
Q 8.40625 27.984375 6.46875 31.125 
Q 4.546875 34.28125 4.546875 38.09375 
Q 4.546875 41.546875 6.125 44.5 
Q 7.71875 47.46875 10.453125 49.421875 
Q 12.5 50.921875 16.03125 51.96875 
Q 19.578125 53.03125 23.640625 53.03125 
Q 29.734375 53.03125 34.34375 51.265625 
Q 38.96875 49.515625 41.15625 46.5 
Q 43.359375 43.5 44.1875 38.484375 
L 35.59375 37.3125 
Q 35.015625 41.3125 32.203125 43.546875 
Q 29.390625 45.796875 24.265625 45.796875 
Q 18.21875 45.796875 15.625 43.796875 
Q 13.03125 41.796875 13.03125 39.109375 
Q 13.03125 37.40625 14.109375 36.03125 
Q 15.1875 34.625 17.484375 33.6875 
Q 18.796875 33.203125 25.25 31.453125 
Q 34.578125 28.953125 38.25 27.359375 
Q 41.9375 25.78125 44.03125 22.75 
Q 46.140625 19.734375 46.140625 15.234375 
Q 46.140625 10.84375 43.578125 6.953125 
Q 41.015625 3.078125 36.171875 0.953125 
Q 31.34375 -1.171875 25.25 -1.171875 
Q 15.140625 -1.171875 9.84375 3.03125 
Q 4.546875 7.234375 3.078125 15.484375 
z
" id="ArialMT-115"/>
      <path d="M 8.203125 0 
L 8.203125 71.578125 
L 56.5 71.578125 
L 56.5 63.140625 
L 17.671875 63.140625 
L 17.671875 40.96875 
L 51.265625 40.96875 
L 51.265625 32.515625 
L 17.671875 32.515625 
L 17.671875 0 
z
" id="ArialMT-70"/>
      <path d="M 8.890625 0 
L 8.890625 10.015625 
L 18.890625 10.015625 
L 18.890625 0 
Q 18.890625 -5.515625 16.9375 -8.90625 
Q 14.984375 -12.3125 10.75 -14.15625 
L 8.296875 -10.40625 
Q 11.078125 -9.1875 12.390625 -6.8125 
Q 13.71875 -4.4375 13.875 0 
z
" id="ArialMT-44"/>
      <path d="M 6.390625 0 
L 6.390625 71.578125 
L 15.1875 71.578125 
L 15.1875 0 
z
" id="ArialMT-108"/>
      <path d="M 6.203125 -19.96875 
L 5.21875 -11.71875 
Q 8.109375 -12.5 10.25 -12.5 
Q 13.1875 -12.5 14.9375 -11.515625 
Q 16.703125 -10.546875 17.828125 -8.796875 
Q 18.65625 -7.46875 20.515625 -2.25 
Q 20.75 -1.515625 21.296875 -0.09375 
L 1.609375 51.859375 
L 11.078125 51.859375 
L 21.875 21.828125 
Q 23.96875 16.109375 25.640625 9.8125 
Q 27.15625 15.875 29.25 21.625 
L 40.328125 51.859375 
L 49.125 51.859375 
L 29.390625 -0.875 
Q 26.21875 -9.421875 24.46875 -12.640625 
Q 22.125 -17 19.09375 -19.015625 
Q 16.0625 -21.046875 11.859375 -21.046875 
Q 9.328125 -21.046875 6.203125 -19.96875 
z
" id="ArialMT-121"/>
      <path d="M 40.578125 0 
L 40.578125 7.625 
Q 34.515625 -1.171875 24.125 -1.171875 
Q 19.53125 -1.171875 15.546875 0.578125 
Q 11.578125 2.34375 9.640625 5 
Q 7.71875 7.671875 6.9375 11.53125 
Q 6.390625 14.109375 6.390625 19.734375 
L 6.390625 51.859375 
L 15.1875 51.859375 
L 15.1875 23.09375 
Q 15.1875 16.21875 15.71875 13.8125 
Q 16.546875 10.359375 19.234375 8.375 
Q 21.921875 6.390625 25.875 6.390625 
Q 29.828125 6.390625 33.296875 8.421875 
Q 36.765625 10.453125 38.203125 13.9375 
Q 39.65625 17.4375 39.65625 24.078125 
L 39.65625 51.859375 
L 48.4375 51.859375 
L 48.4375 0 
z
" id="ArialMT-117"/>
      <path d="M -0.140625 0 
L 27.34375 71.578125 
L 37.546875 71.578125 
L 66.84375 0 
L 56.0625 0 
L 47.703125 21.6875 
L 17.78125 21.6875 
L 9.90625 0 
z
M 20.515625 29.390625 
L 44.78125 29.390625 
L 37.3125 49.21875 
Q 33.890625 58.25 32.234375 64.0625 
Q 30.859375 57.171875 28.375 50.390625 
z
" id="ArialMT-65"/>
      <path d="M 6.5 0 
L 6.5 51.859375 
L 14.40625 51.859375 
L 14.40625 44 
Q 17.4375 49.515625 20 51.265625 
Q 22.5625 53.03125 25.640625 53.03125 
Q 30.078125 53.03125 34.671875 50.203125 
L 31.640625 42.046875 
Q 28.421875 43.953125 25.203125 43.953125 
Q 22.3125 43.953125 20.015625 42.21875 
Q 17.71875 40.484375 16.75 37.40625 
Q 15.28125 32.71875 15.28125 27.15625 
L 15.28125 0 
z
" id="ArialMT-114"/>
     </defs>
     <use xlink:href="#ArialMT-37"/>
     <use x="88.916016" xlink:href="#ArialMT-32"/>
     <use x="116.699219" xlink:href="#ArialMT-99"/>
     <use x="166.699219" xlink:href="#ArialMT-104"/>
     <use x="222.314453" xlink:href="#ArialMT-97"/>
     <use x="277.929688" xlink:href="#ArialMT-110"/>
     <use x="333.544922" xlink:href="#ArialMT-103"/>
     <use x="389.160156" xlink:href="#ArialMT-101"/>
     <use x="444.775391" xlink:href="#ArialMT-32"/>
     <use x="472.558594" xlink:href="#ArialMT-105"/>
     <use x="494.775391" xlink:href="#ArialMT-110"/>
     <use x="550.390625" xlink:href="#ArialMT-32"/>
     <use x="578.173828" xlink:href="#ArialMT-106"/>
     <use x="600.390625" xlink:href="#ArialMT-111"/>
     <use x="656.005859" xlink:href="#ArialMT-98"/>
     <use x="711.621094" xlink:href="#ArialMT-32"/>
     <use x="739.404297" xlink:href="#ArialMT-112"/>
     <use x="795.019531" xlink:href="#ArialMT-111"/>
     <use x="850.634766" xlink:href="#ArialMT-115"/>
     <use x="900.634766" xlink:href="#ArialMT-116"/>
     <use x="928.417969" xlink:href="#ArialMT-105"/>
     <use x="950.634766" xlink:href="#ArialMT-110"/>
     <use x="1006.25" xlink:href="#ArialMT-103"/>
     <use x="1061.865234" xlink:href="#ArialMT-115"/>
     <use x="1111.865234" xlink:href="#ArialMT-32"/>
     <use x="1139.648438" xlink:href="#ArialMT-115"/>
     <use x="1189.648438" xlink:href="#ArialMT-105"/>
     <use x="1211.865234" xlink:href="#ArialMT-110"/>
     <use x="1267.480469" xlink:href="#ArialMT-99"/>
     <use x="1317.480469" xlink:href="#ArialMT-101"/>
     <use x="1373.095703" xlink:href="#ArialMT-32"/>
     <use x="1400.878906" xlink:href="#ArialMT-70"/>
     <use x="1461.962891" xlink:href="#ArialMT-101"/>
     <use x="1517.578125" xlink:href="#ArialMT-98"/>
     <use x="1573.193359" xlink:href="#ArialMT-32"/>
     <use x="1600.976562" xlink:href="#ArialMT-50"/>
     <use x="1656.591797" xlink:href="#ArialMT-48"/>
     <use x="1712.207031" xlink:href="#ArialMT-50"/>
     <use x="1767.822266" xlink:href="#ArialMT-48"/>
     <use x="1823.4375" xlink:href="#ArialMT-44"/>
     <use x="1851.220703" xlink:href="#ArialMT-32"/>
     <use x="1879.003906" xlink:href="#ArialMT-115"/>
     <use x="1929.003906" xlink:href="#ArialMT-101"/>
     <use x="1984.619141" xlink:href="#ArialMT-97"/>
     <use x="2040.234375" xlink:href="#ArialMT-115"/>
     <use x="2090.234375" xlink:href="#ArialMT-111"/>
     <use x="2145.849609" xlink:href="#ArialMT-110"/>
     <use x="2201.464844" xlink:href="#ArialMT-97"/>
     <use x="2257.080078" xlink:href="#ArialMT-108"/>
     <use x="2279.296875" xlink:href="#ArialMT-108"/>
     <use x="2301.513672" xlink:href="#ArialMT-121"/>
     <use x="2351.513672" xlink:href="#ArialMT-32"/>
     <use x="2379.296875" xlink:href="#ArialMT-97"/>
     <use x="2434.912109" xlink:href="#ArialMT-100"/>
     <use x="2490.527344" xlink:href="#ArialMT-106"/>
     <use x="2512.744141" xlink:href="#ArialMT-117"/>
     <use x="2568.359375" xlink:href="#ArialMT-115"/>
     <use x="2618.359375" xlink:href="#ArialMT-116"/>
     <use x="2646.142578" xlink:href="#ArialMT-101"/>
     <use x="2701.757812" xlink:href="#ArialMT-100"/>
     <use x="2757.373047" xlink:href="#ArialMT-44"/>
     <use x="2785.15625" xlink:href="#ArialMT-32"/>
     <use x="2812.939453" xlink:href="#ArialMT-116"/>
     <use x="2840.722656" xlink:href="#ArialMT-111"/>
     <use x="2896.337891" xlink:href="#ArialMT-32"/>
     <use x="2918.621094" xlink:href="#ArialMT-65"/>
     <use x="2985.320312" xlink:href="#ArialMT-112"/>
     <use x="3040.935547" xlink:href="#ArialMT-114"/>
     <use x="3074.236328" xlink:href="#ArialMT-32"/>
     <use x="3102.019531" xlink:href="#ArialMT-50"/>
     <use x="3157.634766" xlink:href="#ArialMT-48"/>
     <use x="3213.25" xlink:href="#ArialMT-50"/>
     <use x="3268.865234" xlink:href="#ArialMT-49"/>
    </g>
   </g>
  </g>
 </g>
 <defs>
  <clipPath id="p9cf8a06e83">
   <rect height="543.6" width="1116" x="180" y="86.4"/>
  </clipPath>
 </defs>
</svg>
